<svg height="464pt" viewBox="-69 0 464 464" width="464pt" xmlns="http://www.w3.org/2000/svg">
    <g fill="#32b1cc">
        <path d="m278.539062 56h16v16h-16zm0 0" />
        <path d="m278.539062 88h16v16h-16zm0 0" />
        <path d="m262.539062 72h16v16h-16zm0 0" />
        <path d="m294.539062 72h16v16h-16zm0 0" />
        <path d="m70.539062 128h16v16h-16zm0 0" />
        <path d="m70.539062 160h16v16h-16zm0 0" />
        <path d="m54.539062 144h16v16h-16zm0 0" />
        <path d="m86.539062 144h16v16h-16zm0 0" />
    </g>
    <path
        d="m158.539062 176c13.257813 0 24 10.746094 24 24v120h-48v-120c0-13.253906 10.746094-24 24-24zm0 0"
        fill="#ffd782" />
    <path
        d="m174.539062 320h-48c-13.253906 0-24 10.746094-24 24 0 56 48 104 48 104s16 16 32 16h96c24 0 32-8 40-32 4.765626-18.304688 7.449219-37.09375 8-56v-56zm0 0"
        fill="#ffd782" />
    <path
        d="m254.539062 264c13.257813 0 24 10.746094 24 24v64c0 13.253906-10.742187 24-24 24-13.253906 0-24-10.746094-24-24v-64c0-13.253906 10.746094-24 24-24zm0 0"
        fill="#e59d35" />
    <path
        d="m302.539062 264c13.257813 0 24 10.746094 24 24v64c0 13.253906-10.742187 24-24 24-13.253906 0-24-10.746094-24-24v-64c0-13.253906 10.746094-24 24-24zm0 0"
        fill="#f9be58" />
    <path
        d="m158.539062 144s-64-40-16-72c53.664063-35.777344 47.496094-40 40-72 0 0 71 51.335938 16 88-48 32-40 56-40 56zm0 0"
        fill="#e97424" />
    <path
        d="m250.875 222.273438c-30.398438 0-77.292969-5.921876-150.109375-22.464844l3.550781-15.617188c162.464844 36.9375 184.800782 18.136719 187.800782 11.503906 6.917968-15.414062-35.425782-55.199218-66.234376-77.191406l9.304688-13.007812c14.539062 10.398437 86.304688 63.839844 71.527344 96.742187-4.398438 9.816407-15.910156 20.035157-55.839844 20.035157zm0 0"
        fill="#dd3e47" />
    <path
        d="m65.691406 110.398438c-52.75-40.214844-72.382812-66.535157-63.71875-85.375 13.953125-30.320313 100.152344-14.398438 126.238282-8.847657l-3.34375 15.648438c-47.671876-10.222657-102.582032-12.671875-108.351563-.113281-1.199219 2.601562-4 18.03125 58.871094 65.921874zm0 0"
        fill="#dd3e47" />
    <path d="m6.539062 112h16v16h-16zm0 0" fill="#55b56a" />
    <path d="m54.539062 216h16v16h-16zm0 0" fill="#55b56a" />
    <path d="m214.539062 160h16v16h-16zm0 0" fill="#55b56a" />
    <path d="m246.539062 24h16v16h-16zm0 0" fill="#55b56a" />
    <path d="m86.539062 48h16v16h-16zm0 0" fill="#55b56a" />
    <path
        d="m206.539062 264c13.257813 0 24 10.746094 24 24v64c0 13.253906-10.742187 24-24 24-13.253906 0-24-10.746094-24-24v-64c0-13.253906 10.746094-24 24-24zm0 0"
        fill="#f9be58" />
    <path
        d="m214.539062 424h-16c0-40.761719-39.628906-47.832031-41.320312-48.113281l2.640625-15.773438c31.484375 4.902344 54.699219 32.023438 54.679687 63.886719zm0 0"
        fill="#e59d35" />
    <path d="m161.539062 324h31v42.503906h-31zm0 0" fill="#ffd782" />
    <path
        d="m144.882812 453.65625c-2.054687-2.054688-50.34375-51.015625-50.34375-109.65625 0-17.671875 14.328126-32 32-32h48c17.675782 0 32 14.328125 32 32s-14.324218 32-32 32h-32v-16h32c8.839844 0 16-7.164062 16-16s-7.160156-16-16-16h-48c-8.835937 0-16 7.164062-16 16 0 52.089844 45.203126 97.878906 45.65625 98.34375zm0 0"
        fill="#e59d35" />
</svg>